<?xml version="1.0" encoding="utf-8"?>
<svg version="1.1" xmlns="http://www.w3.org/2000/svg" x="0px" y="0px"
	 viewBox="275 248 520 155" xml:space="preserve">
<style type="text/css">
	.st0{fill:#45BDD1;}
	.st1{fill:#FFFFFF;}
</style>
<g>
	<g>
		<g>
			<g>
				<path class="st0" d="M288.01,313.26c0-30.69,18.45-49.4,43.67-49.4c13.18,0,21.87,5.98,27.44,11.73l-6.63,7.88 c-4.82-4.98-10.93-8.97-20.48-8.97c-19.17,0-31.49,14.73-31.49,38.43c0,23.92,11.31,38.91,31.61,38.91 c6.82,0,13.39-2.04,17.14-5.59v-24.78h-20.15v-10.03h31.19v39.99c-6.12,6.38-16.54,11.05-29.33,11.05 C305.88,362.49,288.01,344.17,288.01,313.26z"/>
				<path class="st0" d="M376.63,325.61c0-23.52,15.38-37.07,32.66-37.07s32.65,13.55,32.65,37.07c0,23.33-15.38,36.88-32.65,36.88 S376.63,348.94,376.63,325.61z M429.62,325.61c0-16.15-8.21-27.14-20.33-27.14c-12.12,0-20.33,10.99-20.33,27.14 c0,16.15,8.21,26.96,20.33,26.96C421.41,352.57,429.62,341.76,429.62,325.61z"/>
				<path class="st1" d="M461.56,265.61h29.8c19.38,0,33.3,6.96,33.3,26.78c0,19-13.92,28.15-33.3,28.15h-17.69v40.22h-12.11V265.61z M489.62,310.72c14.81,0,22.96-6,22.96-18.33c0-12.52-8.15-16.96-22.96-16.96h-15.95v35.29H489.62z M488.97,317.22l9.49-6.26 l29.03,49.8h-13.72L488.97,317.22z"/>
				<path class="st1" d="M537.69,325.61c0-22.94,15.46-37.07,31.68-37.07c17.97,0,28.12,12.91,28.12,33.07 c0,2.52-0.21,5.03-0.56,6.77h-47.46c0.85,14.93,9.98,24.61,23.41,24.61c6.76,0,12.32-2.18,17.54-5.63l4.27,7.82 c-6.18,4.04-13.69,7.31-23.27,7.31C552.65,362.49,537.69,348.76,537.69,325.61z M586.96,319.84c0-14.12-6.35-21.8-17.37-21.8 c-9.91,0-18.76,7.95-20.21,21.8H586.96z"/>
				<path class="st1" d="M614.83,346.6v-89.13h11.92v90c0,3.65,1.59,5.1,3.33,5.1c0.69,0,1.27,0,2.61-0.29l1.62,9.1 c-1.69,0.61-3.74,1.11-6.86,1.11C618.51,362.49,614.83,356.79,614.83,346.6z"/>
				<path class="st1" d="M647.43,342.46c0-15.35,13.25-23.03,43.28-26.29c-0.03-9.07-3.04-17.8-14.55-17.8 c-8.15,0-15.49,3.86-21.02,7.55l-4.67-8.17c6.48-4.26,16.37-9.2,27.68-9.2c17.2,0,24.47,11.43,24.47,28.98v43.23h-9.85 l-1.01-8.42h-0.4c-6.71,5.59-14.56,10.16-23.3,10.16C656.29,362.49,647.43,355.17,647.43,342.46z M690.72,343.56v-19.57 c-23.62,2.84-31.6,8.62-31.6,17.63c0,8.01,5.43,11.27,12.35,11.27C678.27,352.89,683.89,349.57,690.72,343.56z"/>
				<path class="st1" d="M717.8,389.68l2.33-9.5c1.4,0.47,3.56,1.05,5.37,1.05c7.95,0,12.97-6.38,15.89-15.13l1.6-5.21l-28.28-70.61 h12.29l14.38,39.01c2.21,6.12,4.58,13.34,6.87,19.85h0.58c2-6.41,4-13.63,5.92-19.85l12.56-39.01H779l-26.55,76.27 c-4.97,13.98-12.25,24.57-26.38,24.57C722.79,391.12,720.07,390.54,717.8,389.68z"/>
			</g>
		</g>
		<g>
			<g>
				<path class="st1" d="M313.79,387.64l1.2-1.38c1.13,1.18,2.71,1.95,4.35,1.95c2.07,0,3.29-1.03,3.29-2.56 c0-1.61-1.14-2.12-2.63-2.77l-2.26-1c-1.47-0.63-3.19-1.74-3.19-4.06c0-2.41,2.1-4.18,4.96-4.18c1.87,0,3.53,0.81,4.64,1.95 l-1.06,1.29c-0.96-0.91-2.12-1.48-3.58-1.48c-1.77,0-2.94,0.89-2.94,2.3c0,1.52,1.37,2.08,2.61,2.61l2.25,0.97 c1.82,0.78,3.25,1.87,3.25,4.21c0,2.49-2.06,4.48-5.37,4.48C317.09,389.98,315.17,389.08,313.79,387.64z"/>
				<path class="st1" d="M327.75,373.94h9.08v1.7h-7.07v4.94h5.97v1.7h-5.97V388h7.31v1.7h-9.32V373.94z"/>
				<path class="st1" d="M339.48,381.83c0-5.08,2.99-8.18,6.99-8.18c1.91,0,3.41,0.93,4.33,1.94l-1.1,1.31 c-0.83-0.88-1.87-1.49-3.2-1.49c-2.98,0-4.96,2.44-4.96,6.36c0,3.96,1.89,6.44,4.88,6.44c1.5,0,2.65-0.65,3.65-1.77l1.1,1.26 c-1.24,1.45-2.79,2.27-4.83,2.27C342.42,389.98,339.48,386.95,339.48,381.83z"/>
				<path class="st1" d="M354.03,383.19v-9.25h2v9.3c0,3.79,1.6,4.98,3.66,4.98c2.09,0,3.74-1.19,3.74-4.98v-9.3h1.92v9.25 c0,5.05-2.44,6.79-5.66,6.79C356.48,389.98,354.03,388.24,354.03,383.19z"/>
				<path class="st1" d="M369.58,373.94h4.93c3.21,0,5.51,1.15,5.51,4.43c0,3.15-2.3,4.66-5.51,4.66h-2.93v6.66h-2V373.94z M374.22,381.41c2.45,0,3.8-0.99,3.8-3.04c0-2.07-1.35-2.81-3.8-2.81h-2.64v5.84H374.22z M374.12,382.49l1.57-1.04l4.81,8.25 h-2.27L374.12,382.49z"/>
				<path class="st1" d="M383.23,373.94h9.08v1.7h-7.07v4.94h5.97v1.7h-5.97V388h7.31v1.7h-9.32V373.94z"/>
				<path class="st1" d="M400.68,373.94h3.94c4.84,0,7.44,2.81,7.44,7.82s-2.6,7.93-7.35,7.93h-4.03V373.94z M404.47,388.05 c3.68,0,5.52-2.31,5.52-6.29c0-3.98-1.84-6.18-5.52-6.18h-1.79v12.47H404.47z"/>
				<path class="st1" d="M415.38,383.19v-9.25h2v9.3c0,3.79,1.6,4.98,3.66,4.98c2.09,0,3.74-1.19,3.74-4.98v-9.3h1.92v9.25 c0,5.05-2.44,6.79-5.66,6.79C417.82,389.98,415.38,388.24,415.38,383.19z"/>
				<path class="st1" d="M434.16,373.94h2.26l5.33,15.75h-2.12l-2.75-8.8c-0.57-1.76-1.07-3.49-1.58-5.31h-0.1 c-0.49,1.83-0.99,3.55-1.56,5.31l-2.78,8.8h-2.04L434.16,373.94z M431.63,383.3h7.25v1.6h-7.25V383.3z"/>
				<path class="st1" d="M443.98,373.94h2V388h6.88v1.7h-8.88V373.94z"/>
				<path class="st1" d="M460.44,373.94h4.93c3.21,0,5.51,1.15,5.51,4.43c0,3.15-2.3,4.66-5.51,4.66h-2.93v6.66h-2V373.94z M465.09,381.41c2.45,0,3.8-0.99,3.8-3.04c0-2.07-1.35-2.81-3.8-2.81h-2.64v5.84H465.09z M464.98,382.49l1.57-1.04l4.81,8.25 h-2.27L464.98,382.49z"/>
				<path class="st1" d="M474.1,373.94h9.08v1.7h-7.07v4.94h5.97v1.7h-5.97V388h7.31v1.7h-9.32V373.94z"/>
				<path class="st1" d="M486.74,373.94h2V388h6.88v1.7h-8.88V373.94z"/>
				<path class="st1" d="M501.65,373.94h2.26l5.33,15.75h-2.12l-2.75-8.8c-0.57-1.76-1.07-3.49-1.58-5.31h-0.1 c-0.49,1.83-0.99,3.55-1.56,5.31l-2.78,8.8h-2.04L501.65,373.94z M499.12,383.3h7.25v1.6h-7.25V383.3z"/>
				<path class="st1" d="M514.02,383.59l-4.73-9.65h2.14l2.03,4.45c0.51,1.16,0.98,2.26,1.53,3.43h0.1 c0.54-1.18,1.09-2.27,1.57-3.43l2.03-4.45h2.08l-4.73,9.65v6.1h-2V383.59z"/>
				<path class="st1" d="M527.69,373.94h2v15.75h-2V373.94z"/>
				<path class="st1" d="M534,373.94h2.07l5.7,9.9l1.7,3.26h0.1c-0.1-1.59-0.25-3.37-0.25-5.01v-8.15h1.9v15.75h-2.07l-5.7-9.91 l-1.7-3.25h-0.1c0.1,1.59,0.25,3.27,0.25,4.92v8.24H534V373.94z"/>
				<path class="st1" d="M549.53,373.94h9.08v1.7h-7.08v5.31h6v1.7h-6v7.05h-2V373.94z"/>
				<path class="st1" d="M561.38,373.94h4.93c3.21,0,5.51,1.15,5.51,4.43c0,3.15-2.3,4.66-5.51,4.66h-2.93v6.66h-2V373.94z M566.03,381.41c2.45,0,3.8-0.99,3.8-3.04c0-2.07-1.35-2.81-3.8-2.81h-2.64v5.84H566.03z M565.92,382.49l1.57-1.04l4.81,8.25 h-2.27L565.92,382.49z"/>
				<path class="st1" d="M578.28,373.94h2.26l5.33,15.75h-2.12l-2.75-8.8c-0.57-1.76-1.07-3.49-1.58-5.31h-0.1 c-0.49,1.83-0.99,3.55-1.56,5.31l-2.78,8.8h-2.04L578.28,373.94z M575.75,383.3H583v1.6h-7.25V383.3z"/>
				<path class="st1" d="M586.95,387.64l1.2-1.38c1.13,1.18,2.71,1.95,4.35,1.95c2.07,0,3.29-1.03,3.29-2.56 c0-1.61-1.14-2.12-2.63-2.77l-2.26-1c-1.47-0.63-3.19-1.74-3.19-4.06c0-2.41,2.1-4.18,4.96-4.18c1.87,0,3.53,0.81,4.64,1.95 l-1.06,1.29c-0.96-0.91-2.12-1.48-3.58-1.48c-1.77,0-2.94,0.89-2.94,2.3c0,1.52,1.37,2.08,2.61,2.61l2.25,0.97 c1.82,0.78,3.25,1.87,3.25,4.21c0,2.49-2.06,4.48-5.37,4.48C590.25,389.98,588.33,389.08,586.95,387.64z"/>
				<path class="st1" d="M604.19,375.64h-4.77v-1.7h11.54v1.7h-4.77v14.06h-2V375.64z"/>
				<path class="st1" d="M613.77,373.94h4.93c3.21,0,5.51,1.15,5.51,4.43c0,3.15-2.3,4.66-5.51,4.66h-2.93v6.66h-2V373.94z M618.42,381.41c2.45,0,3.8-0.99,3.8-3.04c0-2.07-1.35-2.81-3.8-2.81h-2.64v5.84H618.42z M618.31,382.49l1.57-1.04l4.81,8.25 h-2.27L618.31,382.49z"/>
				<path class="st1" d="M627.36,383.19v-9.25h2v9.3c0,3.79,1.6,4.98,3.66,4.98c2.09,0,3.73-1.19,3.73-4.98v-9.3h1.92v9.25 c0,5.05-2.44,6.79-5.66,6.79C629.81,389.98,627.36,388.24,627.36,383.19z"/>
				<path class="st1" d="M642,381.83c0-5.08,2.99-8.18,6.99-8.18c1.91,0,3.41,0.93,4.33,1.94l-1.1,1.31 c-0.83-0.88-1.87-1.49-3.2-1.49c-2.98,0-4.96,2.44-4.96,6.36c0,3.96,1.89,6.44,4.88,6.44c1.5,0,2.65-0.65,3.65-1.77l1.1,1.26 c-1.24,1.45-2.79,2.27-4.83,2.27C644.94,389.98,642,386.95,642,381.83z"/>
				<path class="st1" d="M659.89,375.64h-4.77v-1.7h11.54v1.7h-4.77v14.06h-2V375.64z"/>
				<path class="st1" d="M669.41,383.19v-9.25h2v9.3c0,3.79,1.6,4.98,3.66,4.98c2.09,0,3.73-1.19,3.73-4.98v-9.3h1.92v9.25 c0,5.05-2.44,6.79-5.66,6.79C671.86,389.98,669.41,388.24,669.41,383.19z"/>
				<path class="st1" d="M684.96,373.94h4.93c3.21,0,5.51,1.15,5.51,4.43c0,3.15-2.3,4.66-5.51,4.66h-2.93v6.66h-2V373.94z M689.6,381.41c2.45,0,3.8-0.99,3.8-3.04c0-2.07-1.35-2.81-3.8-2.81h-2.64v5.84H689.6z M689.5,382.49l1.57-1.04l4.81,8.25h-2.27 L689.5,382.49z"/>
				<path class="st1" d="M698.61,373.94h9.08v1.7h-7.08v4.94h5.97v1.7h-5.97V388h7.32v1.7h-9.32V373.94z"/>
			</g>
		</g>
	</g>
</g>
</svg>
