<?xml version="1.0" encoding="utf-8"?>
<svg version="1.1" xmlns="http://www.w3.org/2000/svg" xmlns:xlink="http://www.w3.org/1999/xlink" x="0px" y="0px"
	 viewBox="275 248 520 155" xml:space="preserve">
<style type="text/css">
	.st0{fill:#45BDD1;}
	.st1{fill:#FFFFFF;}
</style>
<g>
	<g>
		<g>
			<g>
				<path class="st0" d="M-113.34,323.42c0-30.69,18.45-49.4,43.67-49.4c13.18,0,21.87,5.98,27.44,11.73l-6.63,7.88
					c-4.82-4.98-10.93-8.97-20.48-8.97c-19.17,0-31.49,14.73-31.49,38.43c0,23.92,11.31,38.91,31.61,38.91
					c6.82,0,13.39-2.04,17.14-5.59v-24.78h-20.15v-10.03h31.19v39.99c-6.12,6.38-16.54,11.05-29.33,11.05
					C-95.47,372.65-113.34,354.32-113.34,323.42z"/>
				<path class="st0" d="M-24.71,335.77c0-23.52,15.38-37.07,32.66-37.07s32.65,13.55,32.65,37.07c0,23.33-15.38,36.88-32.65,36.88
					S-24.71,359.1-24.71,335.77z M28.28,335.77c0-16.15-8.21-27.14-20.33-27.14c-12.12,0-20.33,10.99-20.33,27.14
					c0,16.15,8.21,26.96,20.33,26.96C20.06,362.72,28.28,351.92,28.28,335.77z"/>
				<path class="st1" d="M60.21,275.76h29.8c19.38,0,33.3,6.96,33.3,26.78c0,19-13.92,28.15-33.3,28.15H72.32v40.22H60.21V275.76z
					 M88.27,320.87c14.81,0,22.96-6,22.96-18.33c0-12.52-8.15-16.96-22.96-16.96H72.32v35.29H88.27z M87.62,327.38l9.49-6.26
					l29.03,49.8h-13.72L87.62,327.38z"/>
				<path class="st1" d="M136.35,335.77c0-22.94,15.46-37.07,31.68-37.07c17.97,0,28.12,12.91,28.12,33.07
					c0,2.52-0.21,5.03-0.56,6.77h-47.46c0.85,14.93,9.98,24.61,23.41,24.61c6.76,0,12.32-2.18,17.54-5.63l4.27,7.82
					c-6.18,4.04-13.69,7.31-23.27,7.31C151.3,372.65,136.35,358.92,136.35,335.77z M185.61,330c0-14.12-6.35-21.8-17.37-21.8
					c-9.91,0-18.76,7.95-20.21,21.8H185.61z"/>
				<path class="st1" d="M213.49,356.76v-89.13h11.92v90c0,3.65,1.59,5.1,3.33,5.1c0.69,0,1.27,0,2.61-0.29l1.62,9.1
					c-1.69,0.61-3.74,1.11-6.86,1.11C217.16,372.65,213.49,366.95,213.49,356.76z"/>
				<path class="st1" d="M246.09,352.61c0-15.35,13.25-23.03,43.28-26.29c-0.03-9.07-3.04-17.8-14.55-17.8
					c-8.15,0-15.49,3.86-21.02,7.55l-4.67-8.17c6.48-4.26,16.37-9.2,27.68-9.2c17.2,0,24.47,11.43,24.47,28.98v43.23h-9.85
					l-1.01-8.42h-0.4c-6.72,5.59-14.56,10.16-23.3,10.16C254.94,372.65,246.09,365.33,246.09,352.61z M289.37,353.71v-19.57
					c-23.62,2.84-31.6,8.62-31.6,17.63c0,8.01,5.43,11.27,12.35,11.27C276.93,363.04,282.54,359.73,289.37,353.71z"/>
				<path class="st1" d="M316.45,399.83l2.33-9.5c1.4,0.47,3.56,1.05,5.37,1.05c7.95,0,12.97-6.38,15.89-15.13l1.6-5.21
					l-28.28-70.61h12.29l14.38,39.01c2.21,6.12,4.58,13.34,6.87,19.85h0.58c2-6.41,4-13.63,5.92-19.85l12.56-39.01h11.68
					l-26.55,76.27c-4.97,13.98-12.25,24.57-26.38,24.57C321.44,401.28,318.72,400.7,316.45,399.83z"/>
			</g>
		</g>
		<g>
			<g>
				<path class="st1" d="M414.63,346.47l2.84-3.34c1.97,1.87,4.6,3.13,7.16,3.13c3.09,0,4.79-1.4,4.79-3.54
					c0-2.26-1.77-2.98-4.27-4.04l-3.76-1.63c-2.71-1.13-5.55-3.27-5.55-7.28c0-4.38,3.86-7.75,9.23-7.75c3.21,0,6.32,1.33,8.47,3.5
					l-2.5,3.09c-1.75-1.49-3.61-2.36-5.96-2.36c-2.6,0-4.3,1.22-4.3,3.23c0,2.16,2.09,2.96,4.37,3.89l3.71,1.55
					c3.27,1.36,5.55,3.43,5.55,7.41c0,4.45-3.7,8.17-9.86,8.17C420.81,350.49,417.24,349.03,414.63,346.47z"/>
				<path class="st1" d="M439.4,322.52h16.53v4.1h-11.66v7.04h9.88v4.1h-9.88v8.13h12.08v4.1H439.4V322.52z"/>
				<path class="st1" d="M460.55,336.35c0-8.99,5.63-14.33,12.59-14.33c3.44,0,6.18,1.65,7.91,3.48l-2.6,3.14
					c-1.41-1.41-3.06-2.39-5.21-2.39c-4.47,0-7.68,3.78-7.68,9.95c0,6.27,2.96,10.06,7.56,10.06c2.44,0,4.32-1.13,5.86-2.82
					l2.6,3.06c-2.23,2.59-5.09,4-8.65,4C466.03,350.49,460.55,345.44,460.55,336.35z"/>
				<path class="st1" d="M486.06,337.94v-15.42h4.87v15.79c0,5.98,2.23,7.95,5.56,7.95c3.36,0,5.68-1.97,5.68-7.95v-15.79h4.69
					v15.42c0,9.02-4,12.55-10.37,12.55C490.12,350.49,486.06,346.96,486.06,337.94z"/>
				<path class="st1" d="M513.7,322.52h9.26c5.71,0,10.12,2.02,10.12,8.15c0,5.91-4.4,8.59-10.12,8.59h-4.39v10.74h-4.87V322.52z
					 M522.45,335.35c3.76,0,5.81-1.56,5.81-4.69c0-3.16-2.05-4.25-5.81-4.25h-3.88v8.94H522.45z M522.04,337.95l3.53-2.91
					l8.58,14.95h-5.48L522.04,337.95z"/>
				<path class="st1" d="M538.56,322.52h16.53v4.1h-11.66v7.04h9.88v4.1h-9.88v8.13h12.08v4.1h-16.95V322.52z"/>
				<path class="st1" d="M569.56,322.52h7.33c8.42,0,13.39,4.54,13.39,13.63s-4.97,13.85-13.14,13.85h-7.58V322.52z M576.57,346.04
					c5.53,0,8.7-3.14,8.7-9.9s-3.18-9.68-8.7-9.68h-2.13v19.58H576.57z"/>
				<path class="st1" d="M595.67,337.94v-15.42h4.87v15.79c0,5.98,2.24,7.95,5.56,7.95c3.36,0,5.68-1.97,5.68-7.95v-15.79h4.69
					v15.42c0,9.02-4,12.55-10.37,12.55C599.74,350.49,595.67,346.96,595.67,337.94z"/>
				<path class="st1" d="M628.7,322.52h5.71l8.96,27.47h-5.16l-4.18-14.62c-0.87-2.91-1.68-6.04-2.49-9.06h-0.17
					c-0.76,3.04-1.56,6.15-2.44,9.06l-4.22,14.62h-4.97L628.7,322.52z M625.03,338.72h12.94v3.82h-12.94V338.72z"/>
				<path class="st1" d="M646.76,322.52h4.87v23.37h11.41v4.1h-16.28V322.52z"/>
				<path class="st1" d="M676.24,322.52h9.26c5.71,0,10.12,2.02,10.12,8.15c0,5.91-4.4,8.59-10.12,8.59h-4.39v10.74h-4.87V322.52z
					 M684.99,335.35c3.76,0,5.81-1.56,5.81-4.69c0-3.16-2.05-4.25-5.81-4.25h-3.88v8.94H684.99z M684.58,337.95l3.53-2.91
					l8.58,14.95h-5.48L684.58,337.95z"/>
				<path class="st1" d="M701.1,322.52h16.53v4.1h-11.66v7.04h9.88v4.1h-9.88v8.13h12.08v4.1H701.1V322.52z"/>
				<path class="st1" d="M723.7,322.52h4.87v23.37h11.41v4.1H723.7V322.52z"/>
				<path class="st1" d="M750.16,322.52h5.71l8.96,27.47h-5.16l-4.18-14.62c-0.87-2.91-1.68-6.04-2.49-9.06h-0.17
					c-0.76,3.04-1.56,6.15-2.44,9.06l-4.22,14.62h-4.97L750.16,322.52z M746.5,338.72h12.94v3.82H746.5V338.72z"/>
				<path class="st1" d="M772.81,339.77l-8.27-17.26h5.21l2.99,7.02c0.81,2.04,1.58,3.95,2.45,6.04h0.17c0.87-2.09,1.73-4,2.53-6.04
					l2.99-7.02h5.08l-8.27,17.26v10.22h-4.87V339.77z"/>
				<path class="st1" d="M797.66,322.52h4.87v27.47h-4.87V322.52z"/>
				<path class="st1" d="M809.5,322.52h5.01l8.54,15.44l2.84,5.86h0.17c-0.24-2.84-0.62-6.32-0.62-9.38v-11.93h4.64v27.47h-5.01
					l-8.54-15.47l-2.84-5.84h-0.17c0.24,2.91,0.62,6.22,0.62,9.27v12.03h-4.64V322.52z"/>
				<path class="st1" d="M837.06,322.52h16.6v4.1h-11.73v7.8h9.98v4.1h-9.98v11.48h-4.87V322.52z"/>
				<path class="st1" d="M858.48,322.52h9.26c5.71,0,10.12,2.02,10.12,8.15c0,5.91-4.4,8.59-10.12,8.59h-4.39v10.74h-4.87V322.52z
					 M867.23,335.35c3.76,0,5.81-1.56,5.81-4.69c0-3.16-2.05-4.25-5.81-4.25h-3.88v8.94H867.23z M866.82,337.95l3.53-2.91
					l8.58,14.95h-5.48L866.82,337.95z"/>
				<path class="st1" d="M888.72,322.52h5.71l8.96,27.47h-5.16l-4.18-14.62c-0.87-2.91-1.68-6.04-2.49-9.06h-0.17
					c-0.76,3.04-1.56,6.15-2.44,9.06l-4.22,14.62h-4.97L888.72,322.52z M885.05,338.72h12.94v3.82h-12.94V338.72z"/>
				<path class="st1" d="M904.89,346.47l2.84-3.34c1.97,1.87,4.6,3.13,7.16,3.13c3.09,0,4.79-1.4,4.79-3.54
					c0-2.26-1.77-2.98-4.27-4.04l-3.76-1.63c-2.71-1.13-5.55-3.27-5.55-7.28c0-4.38,3.86-7.75,9.22-7.75c3.21,0,6.32,1.33,8.47,3.5
					l-2.5,3.09c-1.75-1.49-3.61-2.36-5.96-2.36c-2.6,0-4.3,1.22-4.3,3.23c0,2.16,2.09,2.96,4.37,3.89l3.71,1.55
					c3.27,1.36,5.55,3.43,5.55,7.41c0,4.45-3.7,8.17-9.86,8.17C911.08,350.49,907.5,349.03,904.89,346.47z"/>
				<path class="st1" d="M935.21,326.62h-7.93v-4.1h20.73v4.1h-7.93v23.37h-4.87V326.62z"/>
				<path class="st1" d="M952.6,322.52h9.26c5.71,0,10.12,2.02,10.12,8.15c0,5.91-4.4,8.59-10.12,8.59h-4.39v10.74h-4.87V322.52z
					 M961.35,335.35c3.76,0,5.81-1.56,5.81-4.69c0-3.16-2.05-4.25-5.81-4.25h-3.88v8.94H961.35z M960.94,337.95l3.53-2.91
					l8.58,14.95h-5.48L960.94,337.95z"/>
				<path class="st1" d="M977.33,337.94v-15.42h4.87v15.79c0,5.98,2.23,7.95,5.56,7.95c3.36,0,5.68-1.97,5.68-7.95v-15.79h4.69
					v15.42c0,9.02-4,12.55-10.37,12.55C981.39,350.49,977.33,346.96,977.33,337.94z"/>
				<path class="st1" d="M1003.53,336.35c0-8.99,5.63-14.33,12.59-14.33c3.44,0,6.18,1.65,7.91,3.48l-2.6,3.14
					c-1.41-1.41-3.06-2.39-5.21-2.39c-4.47,0-7.68,3.78-7.68,9.95c0,6.27,2.96,10.06,7.56,10.06c2.44,0,4.32-1.13,5.86-2.82
					l2.6,3.06c-2.23,2.59-5.09,4-8.65,4C1009,350.49,1003.53,345.44,1003.53,336.35z"/>
				<path class="st1" d="M1034.71,326.62h-7.93v-4.1h20.73v4.1h-7.93v23.37h-4.87V326.62z"/>
				<path class="st1" d="M1051.96,337.94v-15.42h4.87v15.79c0,5.98,2.24,7.95,5.56,7.95c3.36,0,5.68-1.97,5.68-7.95v-15.79h4.69
					v15.42c0,9.02-4,12.55-10.37,12.55C1056.03,350.49,1051.96,346.96,1051.96,337.94z"/>
				<path class="st1" d="M1079.6,322.52h9.26c5.71,0,10.12,2.02,10.12,8.15c0,5.91-4.4,8.59-10.12,8.59h-4.39v10.74h-4.87V322.52z
					 M1088.36,335.35c3.76,0,5.81-1.56,5.81-4.69c0-3.16-2.05-4.25-5.81-4.25h-3.88v8.94H1088.36z M1087.95,337.95l3.53-2.91
					l8.58,14.95h-5.48L1087.95,337.95z"/>
				<path class="st1" d="M1104.47,322.52H1121v4.1h-11.66v7.04h9.88v4.1h-9.88v8.13h12.08v4.1h-16.95V322.52z"/>
			</g>
		</g>
	</g>
</g>
</svg>
